<svg width="1200" height="520" viewBox="0 0 1200 520" fill="none" xmlns="http://www.w3.org/2000/svg">
  <defs>
    <marker id="arrow" markerWidth="10" markerHeight="10" refX="8" refY="5" orient="auto" markerUnits="strokeWidth">
      <path d="M 0 0 L 10 5 L 0 10 z" fill="#475569"/>
    </marker>
    <style>
      .title { font: 700 28px -apple-system, BlinkMacSystemFont, "Segoe UI", sans-serif; fill: #0f172a; }
      .label { font: 700 18px -apple-system, BlinkMacSystemFont, "Segoe UI", sans-serif; fill: #0f172a; }
      .small { font: 500 14px -apple-system, BlinkMacSystemFont, "Segoe UI", sans-serif; fill: #64748b; }
      .box { fill: #ffffff; stroke: #cbd5e1; stroke-width: 1.5; rx: 12; }
      .accent { fill: #f8fafc; stroke: #94a3b8; stroke-width: 1.5; rx: 12; }
      .data { fill: #eef2ff; stroke: #c7d2fe; stroke-width: 1.5; rx: 12; }
      .line { stroke: #475569; stroke-width: 2; marker-end: url(#arrow); }
      .dash { stroke: #94a3b8; stroke-width: 2; stroke-dasharray: 6 6; marker-end: url(#arrow); }
    </style>
  </defs>

  <rect width="1200" height="520" fill="#f8fafc"/>
  <text x="56" y="58" class="title">Commerce MSA Overview</text>
  <text x="56" y="88" class="small">주문 생성부터 재고 예약, 결제, 상품 재고 캐시 반영까지 Kafka 이벤트로 연결합니다.</text>

  <rect x="56" y="178" width="150" height="86" class="accent"/>
  <text x="82" y="214" class="label">Web Client</text>
  <text x="86" y="240" class="small">Vite Client</text>

  <rect x="292" y="126" width="190" height="86" class="box"/>
  <text x="332" y="162" class="label">Product</text>
  <text x="334" y="188" class="small">상품 조회 · 캐시</text>

  <rect x="292" y="286" width="190" height="86" class="box"/>
  <text x="342" y="322" class="label">Order</text>
  <text x="321" y="348" class="small">주문 · Outbox</text>

  <rect x="575" y="204" width="176" height="92" class="accent"/>
  <text x="630" y="244" class="label">Kafka</text>
  <text x="616" y="270" class="small">event broker</text>

  <rect x="840" y="112" width="190" height="78" class="box"/>
  <text x="882" y="145" class="label">Inventory</text>
  <text x="878" y="169" class="small">예약 · 확정 · 해제</text>

  <rect x="840" y="222" width="190" height="78" class="box"/>
  <text x="890" y="255" class="label">Payment</text>
  <text x="891" y="279" class="small">승인 · 실패</text>

  <rect x="840" y="332" width="190" height="78" class="box"/>
  <text x="891" y="365" class="label">Product</text>
  <text x="886" y="389" class="small">재고 캐시 갱신</text>

  <rect x="1048" y="126" width="94" height="50" class="data"/>
  <text x="1072" y="156" class="small">DB</text>
  <rect x="1048" y="236" width="94" height="50" class="data"/>
  <text x="1072" y="266" class="small">DB</text>
  <rect x="1048" y="346" width="94" height="50" class="data"/>
  <text x="1068" y="376" class="small">Redis</text>

  <path d="M206 203 C236 181 252 169 292 169" class="line"/>
  <path d="M206 239 C239 286 250 329 292 329" class="line"/>
  <path d="M482 329 C522 321 535 282 575 266" class="line"/>
  <path d="M751 239 C794 201 799 151 840 151" class="line"/>
  <path d="M751 250 C793 252 799 261 840 261" class="line"/>
  <path d="M751 271 C795 301 800 371 840 371" class="line"/>
  <path d="M1030 151 L1048 151" class="dash"/>
  <path d="M1030 261 L1048 261" class="dash"/>
  <path d="M1030 371 L1048 371" class="dash"/>

  <rect x="292" y="398" width="190" height="54" fill="#fff" stroke="#e2e8f0" rx="10"/>
  <text x="318" y="431" class="small">Idempotency Key</text>
  <rect x="512" y="398" width="190" height="54" fill="#fff" stroke="#e2e8f0" rx="10"/>
  <text x="548" y="431" class="small">Transactional Outbox</text>
  <rect x="732" y="398" width="190" height="54" fill="#fff" stroke="#e2e8f0" rx="10"/>
  <text x="776" y="431" class="small">Lease Publisher</text>
</svg>
